PathFileType	4	(X/Y/Z)	1103211_Cal01.trc	
DataRate	CameraRate	NumFrames	NumMarkers	Units	OrigDataRate	OrigDataStartFrame	OrigNumFrames
128	128	4	46	mm	128	44	337
Frame#	Time    CLAV			RSHO			LSHO			C7			T10			RASI			LASI			RPSI			LPSI			LGTR			RGTR			LMFC			RMFC			LANK			RANK			LMMA			RMMA			LHEE			RHEE			LMT5			RMT5			LTOE			RTOE			RELB			RWRA			RWRB			RFIN			LELB			LWRB			LWRA			LFIN			RFM2			LFM2			LKNE			RKNE			RTP2			RTP3			RTA3			LTP2			LTP3			LBHD			RFHD			RBHD			LUPA			LFRA			RFRA
        X1	Y1	Z1	X3	Y3	Z3	X4	Y4	Z4	X5	Y5	Z5	X6	Y6	Z6	X8	Y8	Z8	X9	Y9	Z9	X10	Y10	Z10	X11	Y11	Z11	X12	Y12	Z12	X13	Y13	Z13	X16	Y16	Z16	X17	Y17	Z17	X22	Y22	Z22	X23	Y23	Z23	X24	Y24	Z24	X25	Y25	Z25	X26	Y26	Z26	X27	Y27	Z27	X28	Y28	Z28	X29	Y29	Z29	X30	Y30	Z30	X31	Y31	Z31	X32	Y32	Z32	X33	Y33	Z33	X34	Y34	Z34	X35	Y35	Z35	X36	Y36	Z36	X37	Y37	Z37	X38	Y38	Z38	X39	Y39	Z39	X44	Y44	Z44	X53	Y53	Z53	X58	Y58	Z58	X59	Y59	Z59	X61	Y61	Z61	X62	Y62	Z62	X65	Y65	Z65	X67	Y67	Z67	X68	Y68	Z68	X71	Y71	Z71	X72	Y72	Z72	X73	Y73	Z73	X74	Y74	Z74	X75	Y75	Z75	X77	Y77	Z77
43	0.14	190.43376	1375.5033	-47.41609	89.96147	1425.11731	89.61557	88.28899	1433.77869	-191.90755	50.64944	1429.65051	-46.22011	15.70535	1135.15784	-51.7549	181.10747	946.85938	61.86353	176.52794	953.16589	-165.47606	0.4724	956.09607	0.21175	-1.03159	955.03638	-97.87196	110.31291	869.03326	-216.61797	110.66869	858.21002	119.51978	63.82062	466.80396	-83.60881	65.65375	471.79745	-15.33092	57.51974	91.07791	-207.00914	55.91983	87.34523	108.53784	73.49745	98.62597	-121.34044	80.59959	92.84181	24.93716	-14.72689	59.91252	-159.33568	-15.87902	62.9397	60.09976	168.5813	30.89803	-243.57018	165.73586	40.85294	157.66234	212.95561	64.89188	-176.12105	214.55092	65.16928	91.069	63.54932	1298.46692	348.289	94.49394	1313.64624	593.21375	60.79021	1248.63342	587.78162	58.34085	1302.505	667.97046	43.68404	1302.92615	-436.02008	37.67278	1264.89246	-685.36371	70.21088	1326.37231	-679.44702	31.40382	1321.29675	-758.78503	177.52888	717.35236	118.47603	167.09906	718.86298	-217.27275	77.90964	485.38638	-208.99962	88.70847	479.09192	109.30527	55.16641	268.92761	125.75566	54.60078	182.66905	114.52338	108.11816	232.90698	65.06131	65.52798	279.0722	-225.41032	62.31602	194.05995	-216.68422	75.5365	1608.31958	-128.321	179.89751	1626.1709	39.17406	43.59906	1597.26819	35.47368	64.19041	1394.6803	-292.3985	26.88139	1308.56519	-584.47296	47.34023	1295.53223	432.48874
44	0.14333	190.42665	1375.49207	-47.38686	89.9707	1425.12012	89.61215	88.30415	1433.77612	-191.90111	50.64944	1429.65015	-46.2202	15.72958	1135.1582	-51.77098	181.14241	946.85095	61.87286	176.5443	953.16241	-165.47084	0.50259	956.09338	0.23589	-1.00945	955.02014	-97.85112	110.31961	869.00464	-216.58403	110.68117	858.18774	119.51114	63.82713	466.59457	-83.51421	65.71854	471.77985	-15.29982	57.46358	91.05502	-206.98384	55.9097	87.30779	108.55357	73.53993	98.58788	-121.34627	80.61363	92.82872	24.94218	-14.74134	59.91914	-159.32283	-15.89389	62.96329	60.08492	168.59506	30.8612	-243.5562	165.73395	40.84561	157.69359	212.95897	64.87236	-176.12367	214.55125	65.145	91.08698	63.46227	1298.48792	348.32849	94.46616	1313.64197	593.2215	60.74594	1248.64551	587.76361	58.30634	1302.52002	667.97595	43.68199	1302.93213	-436.01654	37.72956	1264.86572	-685.40057	70.21066	1326.37903	-679.44788	31.40514	1321.28088	-758.78711	177.55138	717.33069	118.48897	167.10249	718.8432	-217.26787	77.89592	485.38034	-209.006	88.71413	479.0972	109.32275	55.18471	268.89709	125.7461	54.60124	182.66792	114.52306	108.09831	232.90102	65.04791	65.53448	279.07794	-225.41203	62.32259	194.03645	-216.67946	75.94795	1608.3031	-128.44414	179.93996	1626.14868	39.1938	43.55507	1597.26965	35.41461	64.21107	1394.6875	-292.40588	26.86848	1308.57092	-584.44885	47.33023	1295.5293	432.43396
45	0.14667	190.43684	1375.48816	-47.41743	89.96941	1425.11853	89.61224	88.29524	1433.77661	-191.90395	50.60568	1429.65247	-46.25026	15.73474	1135.1571	-51.7733	181.13716	946.85413	61.85704	176.53209	953.16461	-165.48042	0.49506	956.08606	0.22516	-1.02026	955.01642	-97.85695	110.33463	868.9884	-216.58586	110.71564	858.21039	119.55405	63.83966	466.77768	-83.59868	65.72704	471.77853	-15.29893	57.50395	91.06728	-206.9825	55.91762	87.31995	108.55804	73.54536	98.58624	-121.34712	80.61383	92.83023	24.9411	-14.73038	59.94087	-159.30833	-15.88261	62.9293	60.1227	168.39392	30.76785	-243.66222	165.76549	40.81913	157.66461	212.9662	64.88256	-176.11546	214.55049	65.14459	91.08792	63.46638	1298.47717	348.32397	94.44513	1313.70361	593.22754	60.72368	1248.67896	587.76849	58.24951	1302.52563	667.974	43.70028	1302.95581	-436.03809	37.7107	1264.90308	-685.38104	70.1907	1326.37585	-679.43719	31.4068	1321.323	-758.78619	177.55406	717.33423	118.48337	166.89063	718.82404	-217.33421	77.90833	485.38763	-208.97285	88.70454	479.07275	109.31792	55.18425	268.89609	125.74599	54.60097	182.66847	114.5233	108.19194	232.91298	65.06551	65.51808	279.06796	-225.4185	62.33116	194.03401	-216.68233	75.69934	1608.20972	-128.41685	179.9482	1626.14905	39.19409	43.58915	1597.26782	35.45201	64.21542	1394.67676	-292.41821	26.86794	1308.57153	-584.4458	47.29082	1295.53455	432.43689
46	0.15	190.43745	1375.48328	-47.42168	89.96744	1425.099	89.61873	88.31146	1433.77747	-191.92464	50.64726	1429.61084	-46.25502	15.73378	1135.15723	-51.77278	181.1433	946.88135	61.87808	176.51765	953.133	-165.4626	0.49307	956.04816	0.26028	-1.02885	954.99829	-97.82405	110.35149	869.01776	-216.63329	110.71179	858.21466	119.55612	63.85617	466.62686	-83.51418	65.71117	471.83209	-15.30461	57.50235	91.07937	-206.98567	55.90143	87.31573	108.52924	73.4727	98.62779	-121.3087	80.62708	92.86341	24.93535	-14.73033	59.94111	-159.31175	-15.86373	62.95655	60.13881	168.36699	30.78834	-243.65907	165.74893	40.8509	157.66817	212.96849	64.8835	-176.076	214.55061	65.16055	91.0732	63.48059	1298.49805	348.32465	94.40941	1313.71912	593.18195	60.7258	1248.66821	587.76764	58.24826	1302.52563	667.97382	43.70457	1302.94214	-436.04205	37.69253	1264.92798	-685.3681	70.17285	1326.38513	-679.44128	31.41079	1321.32239	-758.79053	177.56511	717.37012	118.48965	167.05392	718.84619	-217.27946	77.91098	485.38315	-208.98415	88.74455	479.06821	109.2933	55.18678	268.91837	125.80354	54.59991	182.64717	114.53555	108.1942	232.93614	65.06999	65.53494	279.07391	-225.4109	62.33714	194.04018	-216.68083	75.63531	1608.2207	-128.42314	179.92903	1626.16321	39.17056	43.60248	1597.26672	35.47012	64.1972	1394.6665	-292.39594	26.83578	1308.60327	-584.43829	47.29703	1295.55432	432.44397
